<svg version="1.1" xmlns="http://www.w3.org/2000/svg" xmlns:xlink="http://www.w3.org/1999/xlink" width="329.76554" height="329.60365" viewBox="0,0,329.76554,329.60365"><g transform="translate(-155.14644,-15.20593)"><g data-paper-data="{&quot;isPaintingLayer&quot;:true}" fill-rule="nonzero" stroke-linecap="butt" stroke-linejoin="miter" stroke-miterlimit="10" stroke-dasharray="" stroke-dashoffset="0" style="mix-blend-mode: normal"><path d="M323.38896,18.45594c89.53962,0.08096 90.3492,0.16192 96.3401,1.86204c16.83928,4.77653 27.68766,10.84838 38.45508,21.69676c10.84838,10.76742 16.92024,21.53485 21.69676,38.45508c1.78108,6.07186 1.78108,6.31473 1.78108,99.57842c0,93.26369 0,93.50657 -1.78108,99.57842c-4.77653,16.92024 -10.84838,27.68766 -21.69676,38.45508c-10.76742,10.84838 -21.53485,16.92024 -38.45508,21.69676c-6.07186,1.78108 -6.31473,1.78108 -99.57842,1.78108c-93.26369,0 -93.50657,0 -99.57842,-1.78108c-16.92024,-4.77653 -27.68766,-10.84838 -38.45508,-21.69676c-10.84838,-10.76742 -16.92024,-21.6158 -21.69676,-38.45508c-1.70012,-5.9909 -1.78108,-7.12431 -2.02395,-94.31615c-0.16192,-60.2328 0,-90.67304 0.64766,-95.85435c2.83353,-25.01604 17.5679,-47.44143 39.50754,-60.39472c6.96239,-4.0479 21.13006,-8.98635 28.98299,-10.0388c3.07641,-0.40479 46.06514,-0.64766 95.85435,-0.56671z" fill="#ffff00" stroke="#000000" stroke-width="6.5"/><text transform="translate(195,162.69375) scale(0.5,0.5)" font-size="40" xml:space="preserve" fill="#000000" fill-rule="nonzero" stroke="none" stroke-width="1" stroke-linecap="butt" stroke-linejoin="miter" stroke-miterlimit="10" stroke-dasharray="" stroke-dashoffset="0" font-family="Pixel" font-weight="normal" text-anchor="start" style="mix-blend-mode: normal"><tspan x="0" dy="0">You can be here! Just</tspan><tspan x="0" dy="46.15px">do /apply on our discord</tspan><tspan x="0" dy="46.15px">server!</tspan></text></g></g></svg>